<svg width="60" height="60" viewBox="0 0 60 60" fill="none" xmlns="http://www.w3.org/2000/svg">
    <path d="M60 44.8828C60 53.1983 53.1942 60 44.8828 60H15.1172C6.80169 60 0 53.1983 0 44.8828V15.1172C0 6.80169 6.80169 0 15.1172 0H44.8828C53.1983 0 60 6.80169 60 15.1172V44.8828Z" fill="#36A9E1"/>
    <path d="M12.0848 25.0296H18.9238C19.1353 25.0296 19.3178 25.096 19.4712 25.2246C19.6247 25.3614 19.6993 25.5315 19.6993 25.7305V25.7513C19.6993 25.9503 19.6247 26.1204 19.4712 26.2573C19.3178 26.39 19.1353 26.4522 18.9238 26.4522H12.0848V30.5332C12.0848 31.1014 12.3087 31.5908 12.7608 31.9972C13.2129 32.4037 13.752 32.6069 14.3783 32.6069H18.9238C19.1353 32.6069 19.3178 32.6774 19.4712 32.8142C19.6247 32.9511 19.6993 33.1211 19.6993 33.3202V33.3451C19.6993 33.5359 19.6247 33.7018 19.4712 33.8386C19.3178 33.9755 19.1353 34.046 18.9238 34.046H14.3741C13.2958 34.046 12.3792 33.7059 11.6244 33.0216C10.8696 32.3373 10.4922 31.5078 10.4922 30.5332V20.9528C10.4922 19.9781 10.8696 19.1487 11.6244 18.4643C12.3792 17.78 13.2958 17.4399 14.3741 17.4399H18.9196C19.1312 17.4399 19.3136 17.5104 19.4671 17.6473C19.6205 17.7842 19.6952 17.9501 19.6952 18.145V18.1657C19.6952 18.3648 19.6205 18.5348 19.4671 18.6717C19.3136 18.8086 19.1312 18.8791 18.9196 18.8791H14.3741C13.7437 18.8791 13.2046 19.0823 12.7567 19.4887C12.3087 19.8952 12.0806 20.3846 12.0806 20.9528V25.0296H12.0848Z" fill="white"/>
    <path d="M26.5498 17.4355C29.088 17.4355 31.2529 18.2443 33.0446 19.8659C34.8362 21.4875 35.7321 23.4451 35.7321 25.7427C35.7321 28.0404 34.8362 29.9979 33.0446 31.6195C31.2529 33.2412 29.088 34.0499 26.5498 34.0499H24.6254C23.8457 34.0499 23.178 33.8011 22.6263 33.2992C22.0747 32.8015 21.7969 32.196 21.7969 31.491V19.9945C21.7969 19.2811 22.0747 18.6715 22.6263 18.1738C23.178 17.6844 23.8457 17.4355 24.6254 17.4355H26.5498ZM23.3936 31.4951C23.3936 31.802 23.5139 32.0675 23.7503 32.2914C23.995 32.5071 24.2894 32.6149 24.6295 32.6149H26.5539C28.6525 32.6149 30.4441 31.9472 31.9289 30.6117C33.4137 29.268 34.156 27.6464 34.156 25.7469C34.156 23.8515 33.4137 22.2299 31.9289 20.8862C30.4441 19.5424 28.6525 18.8705 26.5539 18.8705H24.6295C24.2894 18.8705 23.995 18.9825 23.7503 19.2065C23.5139 19.4304 23.3936 19.6959 23.3936 20.0028V31.4951Z" fill="white"/>
    <path d="M49.5523 33.349C49.5523 33.5398 49.4777 33.7057 49.3242 33.8425C49.1708 33.9794 48.9883 34.0499 48.7768 34.0499H48.7394C48.5279 34.0499 48.3454 33.9794 48.192 33.8425C48.0385 33.7057 47.9639 33.5398 47.9639 33.349V27.5178H39.4908V33.349C39.4908 33.5398 39.4161 33.7057 39.2627 33.8425C39.1092 33.9794 38.9267 34.0499 38.7152 34.0499H38.6779C38.4664 34.0499 38.2839 33.9794 38.1305 33.8425C37.977 33.7057 37.9023 33.5398 37.9023 33.349V22.7027C37.9023 21.2428 38.4705 19.9986 39.6111 18.9701C40.7474 17.9498 42.1202 17.4355 43.7253 17.4355C45.3386 17.4355 46.7155 17.9457 47.8519 18.9701C48.9883 19.9986 49.5565 21.2428 49.5565 22.7027V33.349H49.5523ZM47.9639 26.0911V22.7027C47.9639 21.6493 47.5533 20.7493 46.728 19.9945C45.8943 19.2397 44.8948 18.8664 43.7211 18.8664C42.5557 18.8664 41.5603 19.2438 40.7267 19.9945C39.9014 20.7493 39.4908 21.6493 39.4908 22.7027V26.0911H47.9639Z" fill="white"/>
    <path d="M14.5976 38.7408C14.7801 38.7864 14.8755 38.8901 14.8755 39.0602V39.0726C14.8755 39.1804 14.8257 39.2675 14.7303 39.3339C14.6349 39.4002 14.5312 39.4168 14.4193 39.392C14.2326 39.3505 14.0419 39.3256 13.8511 39.3256C13.2248 39.3256 12.6898 39.5247 12.246 39.927C11.8023 40.3293 11.5783 40.8145 11.5783 41.3827C11.5783 41.9509 11.8023 42.4361 12.246 42.8384C12.6898 43.2366 13.2248 43.4356 13.8511 43.4356C14.0419 43.4356 14.2326 43.4149 14.4193 43.3734C14.5354 43.3485 14.6391 43.3651 14.7303 43.4315C14.8257 43.4979 14.8755 43.5849 14.8755 43.6928V43.7011C14.8755 43.8711 14.7842 43.979 14.5976 44.0246C14.3529 44.0785 14.0999 44.1075 13.8469 44.1075C13.0175 44.1075 12.3041 43.8421 11.7193 43.3112C11.1304 42.7804 10.8359 42.1375 10.8359 41.3868C10.8359 40.6362 11.1304 39.9933 11.7193 39.4625C12.3083 38.9316 13.0175 38.662 13.8469 38.662C14.0999 38.6579 14.3529 38.6869 14.5976 38.7408Z" fill="white"/>
    <path d="M17.9768 42.8883C17.9768 43.0376 18.0348 43.1662 18.1551 43.274C18.2712 43.3818 18.4122 43.4357 18.5781 43.4357H19.7435C19.8472 43.4357 19.9302 43.4689 20.0048 43.5353C20.0753 43.6016 20.1126 43.6804 20.1126 43.7717V43.78C20.1126 43.8712 20.0753 43.95 20.0048 44.0122C19.9343 44.0786 19.8472 44.1118 19.7435 44.1118H18.5781C18.209 44.1118 17.8897 43.9915 17.6284 43.7551C17.3671 43.5187 17.2344 43.2325 17.2344 42.8966V38.9939C17.2344 38.9027 17.2717 38.8239 17.3422 38.7575C17.4127 38.6953 17.4998 38.6621 17.5993 38.6621H17.6118C17.7113 38.6621 17.7943 38.6953 17.8689 38.7575C17.9394 38.8239 17.9768 38.9027 17.9768 38.9939V42.8883Z" fill="white"/>
    <path d="M22.7368 38.6577C22.8363 38.6577 22.9193 38.6909 22.9939 38.7531C23.0644 38.8195 23.1018 38.8983 23.1018 38.9895V43.7756C23.1018 43.8668 23.0644 43.9456 22.9939 44.0078C22.9234 44.0742 22.8363 44.1074 22.7368 44.1074H22.7243C22.6248 44.1074 22.5377 44.0742 22.4672 44.0078C22.3967 43.9456 22.3594 43.8668 22.3594 43.7756V38.9895C22.3594 38.8983 22.3967 38.8195 22.4672 38.7531C22.5377 38.6909 22.6248 38.6577 22.7243 38.6577H22.7368Z" fill="white"/>
    <path d="M29.3671 38.7408C29.5496 38.7864 29.645 38.8901 29.645 39.0602V39.0726C29.645 39.1804 29.5952 39.2675 29.4998 39.3339C29.4045 39.4002 29.3008 39.4168 29.1888 39.392C29.0022 39.3505 28.8114 39.3256 28.6206 39.3256C27.9944 39.3256 27.4593 39.5247 27.0156 39.927C26.5718 40.3293 26.3478 40.8145 26.3478 41.3827C26.3478 41.9509 26.5718 42.4361 27.0156 42.8384C27.4593 43.2366 27.9944 43.4356 28.6206 43.4356C28.8114 43.4356 29.0022 43.4149 29.1888 43.3734C29.3049 43.3485 29.4086 43.3651 29.4998 43.4315C29.5952 43.4979 29.645 43.5849 29.645 43.6928V43.7011C29.645 43.8711 29.5538 43.979 29.3671 44.0246C29.1224 44.0785 28.8695 44.1075 28.6165 44.1075C27.787 44.1075 27.0736 43.8421 26.4889 43.3112C25.8999 42.7804 25.6055 42.1375 25.6055 41.3868C25.6055 40.6362 25.8999 39.9933 26.4889 39.4625C27.0778 38.9316 27.787 38.662 28.6165 38.662C28.8695 38.6579 29.1183 38.6869 29.3671 38.7408Z" fill="white"/>
    <path d="M32.3423 38.6577C32.4418 38.6577 32.5247 38.6909 32.5994 38.7531C32.6699 38.8195 32.7072 38.8983 32.7072 38.9895V40.8683H33.2464C33.6445 40.8683 33.9846 40.7397 34.2625 40.4867C34.5445 40.2337 34.6897 39.9268 34.6897 39.566V38.9895C34.6897 38.8983 34.727 38.8195 34.7975 38.7531C34.868 38.6909 34.9509 38.6577 35.0546 38.6577H35.0671C35.1666 38.6577 35.2496 38.6909 35.3242 38.7531C35.3947 38.8195 35.432 38.8983 35.432 38.9895V39.566C35.432 40.2296 35.1376 40.7563 34.5487 41.1544C34.8721 41.3328 35.1251 41.565 35.3159 41.8636C35.5067 42.1664 35.6062 42.4982 35.6062 42.8507V43.7797C35.6062 43.871 35.573 43.9498 35.5025 44.012C35.432 44.0783 35.3449 44.1115 35.2413 44.1115H35.233C35.1334 44.1115 35.0463 44.0783 34.9717 44.012C34.9012 43.9498 34.868 43.871 34.868 43.7797V42.8507C34.8638 42.4899 34.7228 42.183 34.4408 41.93C34.1588 41.677 33.8146 41.5484 33.4164 41.5484H32.7072V43.7797C32.7072 43.871 32.6699 43.9498 32.5994 44.012C32.5289 44.0783 32.4418 44.1115 32.3423 44.1115H32.3298C32.2303 44.1115 32.1432 44.0783 32.0727 44.012C32.0022 43.9498 31.9648 43.871 31.9648 43.7797V38.9895C31.9648 38.8983 32.0022 38.8195 32.0727 38.7531C32.1432 38.6909 32.2303 38.6577 32.3298 38.6577H32.3423Z" fill="white"/>
    <path d="M49.4056 46.1768C50.0609 46.8321 50.6913 47.4708 51.3259 48.1053C51.9895 48.7689 52.653 49.4283 53.3166 50.0919C53.7065 50.4859 53.7023 50.8384 53.3125 51.2324C52.7318 51.8172 52.1471 52.402 51.5623 52.9868C51.1517 53.3974 50.8033 53.3974 50.3969 52.9909C49.1485 51.7467 47.9043 50.4984 46.6559 49.25C46.6062 49.2002 46.5564 49.1546 46.49 49.0924C46.2246 49.5486 45.9675 49.9882 45.7145 50.4278C45.4449 50.9006 45.1712 51.3693 44.9016 51.8421C44.744 52.12 44.5325 52.3025 44.1924 52.2734C43.8648 52.2444 43.6906 52.0287 43.5786 51.7384C42.5957 49.2666 41.6086 46.7906 40.6215 44.3188C39.9413 42.6183 39.2612 40.9179 38.5852 39.2134C38.3944 38.7364 38.5644 38.3134 39.0082 38.218C39.1699 38.1848 39.3649 38.2138 39.5225 38.276C41.1607 38.9189 42.7947 39.5783 44.4288 40.2295C46.9628 41.2414 49.4969 42.2534 52.0309 43.2612C52.3337 43.3815 52.5618 43.5515 52.5867 43.8999C52.6074 44.2192 52.4415 44.4266 52.1761 44.58C51.3425 45.057 50.5089 45.5422 49.6752 46.0233C49.5881 46.069 49.5052 46.1187 49.4056 46.1768Z" fill="#F39200"/>
    <path d="M50.9797 53.4765C50.7433 53.4765 50.5069 53.3562 50.2705 53.1198L46.5337 49.3872L45.7374 50.76C45.5135 51.1498 45.2854 51.5397 45.0656 51.9337C44.8457 52.3194 44.5554 52.4894 44.1822 52.4562C43.6513 52.4106 43.473 51.9544 43.4107 51.8092C42.4278 49.3333 41.4408 46.8614 40.4537 44.3896L38.4173 39.2883C38.297 38.9814 38.297 38.6787 38.4256 38.4423C38.5334 38.239 38.7284 38.098 38.9731 38.0441C39.1556 38.0026 39.3837 38.0275 39.591 38.1105C40.8103 38.5874 42.0255 39.0768 43.2407 39.5621L45.2356 40.3583C47.5249 41.2708 49.8101 42.1832 52.0995 43.0956C52.3732 43.2034 52.7382 43.4025 52.7714 43.8919C52.7962 44.2527 52.6262 44.5389 52.2654 44.7421C51.6142 45.1154 50.959 45.4928 50.3078 45.8702L49.7023 46.2227L52.2529 48.7775C52.6511 49.1757 53.0492 49.5738 53.4474 49.9719C53.9077 50.4365 53.9077 50.9051 53.4432 51.3696L51.693 53.124C51.4525 53.3562 51.2161 53.4765 50.9797 53.4765ZM46.4508 48.7982L46.6789 49.0181C46.7203 49.0554 46.7535 49.0886 46.7867 49.1217L50.5276 52.8627C50.8636 53.1986 51.0917 53.1986 51.4318 52.8585L53.1819 51.1042C53.5013 50.7848 53.5013 50.5443 53.1861 50.2249C52.7879 49.8268 52.3898 49.4286 51.9917 49.0346L49.1051 46.1439L50.1212 45.5509C50.7723 45.1734 51.4276 44.796 52.0787 44.4228C52.3151 44.2859 52.4147 44.1325 52.3981 43.9168C52.3815 43.6928 52.2571 43.5518 51.9585 43.4357C49.6691 42.5274 47.3798 41.615 45.0946 40.6984L43.0997 39.9021C41.8845 39.4169 40.6693 38.9317 39.4542 38.4506C39.3131 38.3966 39.1597 38.3759 39.0477 38.4008C38.9067 38.4298 38.803 38.5045 38.745 38.6123C38.6703 38.7533 38.6745 38.9441 38.7574 39.1473L40.7938 44.2486C41.7808 46.7204 42.7638 49.1964 43.7508 51.6682C43.8628 51.9461 43.9914 52.0664 44.2112 52.0871C44.4351 52.1078 44.5969 52.0083 44.7421 51.7512C44.966 51.3572 45.19 50.9673 45.4181 50.5775L46.4508 48.7982Z" fill="white"/>
</svg>
