<svg width="32" height="8" viewBox="0 0 32 8" fill="none" xmlns="http://www.w3.org/2000/svg">
    <path d="M1 3.5C0.723858 3.5 0.5 3.72386 0.5 4C0.5 4.27614 0.723858 4.5 1 4.5V3.5ZM31.3536 4.35355C31.5488 4.15829 31.5488 3.84171 31.3536 3.64645L28.1716 0.464466C27.9763 0.269204 27.6597 0.269204 27.4645 0.464466C27.2692 0.659728 27.2692 0.976311 27.4645 1.17157L30.2929 4L27.4645 6.82843C27.2692 7.02369 27.2692 7.34027 27.4645 7.53553C27.6597 7.7308 27.9763 7.7308 28.1716 7.53553L31.3536 4.35355ZM4.75 4.5C5.02614 4.5 5.25 4.27614 5.25 4C5.25 3.72386 5.02614 3.5 4.75 3.5V4.5ZM12.25 3.5C11.9739 3.5 11.75 3.72386 11.75 4C11.75 4.27614 11.9739 4.5 12.25 4.5V3.5ZM19.75 4.5C20.0261 4.5 20.25 4.27614 20.25 4C20.25 3.72386 20.0261 3.5 19.75 3.5V4.5ZM27.25 3.5C26.9739 3.5 26.75 3.72386 26.75 4C26.75 4.27614 26.9739 4.5 27.25 4.5V3.5ZM1 4.5H4.75V3.5H1V4.5ZM12.25 4.5H19.75V3.5H12.25V4.5ZM27.25 4.5H31V3.5H27.25V4.5Z" fill="#36A9E1"/>
</svg>
