<svg width="60" height="8" viewBox="0 0 60 8" fill="none" xmlns="http://www.w3.org/2000/svg">
    <path d="M1 3.5C0.723858 3.5 0.5 3.72386 0.5 4C0.5 4.27614 0.723858 4.5 1 4.5V3.5ZM59.3536 4.35355C59.5488 4.15829 59.5488 3.84171 59.3536 3.64645L56.1716 0.464466C55.9763 0.269204 55.6597 0.269204 55.4645 0.464466C55.2692 0.659728 55.2692 0.976311 55.4645 1.17157L58.2929 4L55.4645 6.82843C55.2692 7.02369 55.2692 7.34027 55.4645 7.53553C55.6597 7.7308 55.9763 7.7308 56.1716 7.53553L59.3536 4.35355ZM4.625 4.5C4.90114 4.5 5.125 4.27614 5.125 4C5.125 3.72386 4.90114 3.5 4.625 3.5V4.5ZM11.875 3.5C11.5989 3.5 11.375 3.72386 11.375 4C11.375 4.27614 11.5989 4.5 11.875 4.5V3.5ZM19.125 4.5C19.4011 4.5 19.625 4.27614 19.625 4C19.625 3.72386 19.4011 3.5 19.125 3.5V4.5ZM26.375 3.5C26.0989 3.5 25.875 3.72386 25.875 4C25.875 4.27614 26.0989 4.5 26.375 4.5V3.5ZM33.625 4.5C33.9011 4.5 34.125 4.27614 34.125 4C34.125 3.72386 33.9011 3.5 33.625 3.5V4.5ZM40.875 3.5C40.5989 3.5 40.375 3.72386 40.375 4C40.375 4.27614 40.5989 4.5 40.875 4.5V3.5ZM48.125 4.5C48.4011 4.5 48.625 4.27614 48.625 4C48.625 3.72386 48.4011 3.5 48.125 3.5V4.5ZM55.375 3.5C55.0989 3.5 54.875 3.72386 54.875 4C54.875 4.27614 55.0989 4.5 55.375 4.5V3.5ZM1 4.5H4.625V3.5H1V4.5ZM11.875 4.5H19.125V3.5H11.875V4.5ZM26.375 4.5H33.625V3.5H26.375V4.5ZM40.875 4.5H48.125V3.5H40.875V4.5ZM55.375 4.5H59V3.5H55.375V4.5Z" fill="#36A9E1"/>
</svg>
